<?xml version="1.0" encoding="UTF-8" standalone="no"?>
<!-- Created with Inkscape (http://www.inkscape.org/) -->

<svg
   xmlns:dc="http://purl.org/dc/elements/1.1/"
   xmlns:cc="http://creativecommons.org/ns#"
   xmlns:rdf="http://www.w3.org/1999/02/22-rdf-syntax-ns#"
   xmlns:svg="http://www.w3.org/2000/svg"
   xmlns="http://www.w3.org/2000/svg"
   xmlns:sodipodi="http://sodipodi.sourceforge.net/DTD/sodipodi-0.dtd"
   xmlns:inkscape="http://www.inkscape.org/namespaces/inkscape"
   width="744.09448819"
   height="1052.3622047"
   id="svg2"
   version="1.1"
   inkscape:version="0.48.2 r9819"
   sodipodi:docname="redbus-logo.svg">
  <defs
     id="defs4" />
  <sodipodi:namedview
     id="base"
     pagecolor="#ffffff"
     bordercolor="#666666"
     borderopacity="1.0"
     inkscape:pageopacity="0.0"
     inkscape:pageshadow="2"
     inkscape:zoom="5.6"
     inkscape:cx="185.92197"
     inkscape:cy="638.49697"
     inkscape:document-units="px"
     inkscape:current-layer="layer1"
     showgrid="true"
     inkscape:window-width="1916"
     inkscape:window-height="1053"
     inkscape:window-x="0"
     inkscape:window-y="0"
     inkscape:window-maximized="1">
    <inkscape:grid
       type="xygrid"
       id="grid4264"
       empspacing="5"
       visible="true"
       enabled="true"
       snapvisiblegridlinesonly="true"
       spacingx="0.25px"
       spacingy="0.25px" />
  </sodipodi:namedview>
  <metadata
     id="metadata7">
    <rdf:RDF>
      <cc:Work
         rdf:about="">
        <dc:format>image/svg+xml</dc:format>
        <dc:type
           rdf:resource="http://purl.org/dc/dcmitype/StillImage" />
        <dc:title></dc:title>
      </cc:Work>
    </rdf:RDF>
  </metadata>
  <g
     inkscape:label="Layer 1"
     inkscape:groupmode="layer"
     id="layer1">
    <g
       id="g4225"
       transform="translate(-90.371121,-13.002787)"
       inkscape:export-filename="/home/adq/dev/android/redbus/res/drawable/icon.png"
       inkscape:export-xdpi="87.862007"
       inkscape:export-ydpi="87.862007">
      <rect
         y="421.90073"
         x="341.17902"
         height="38.006989"
         width="3.0304577"
         id="rect4223"
         style="fill:#336666;fill-opacity:1;stroke:none" />
      <g
         transform="translate(-15.657364,0.12626907)"
         id="g4211">
        <rect
           style="fill:#999999;fill-opacity:1;stroke:none"
           id="rect4098"
           width="13.005714"
           height="17.930208"
           x="351.65933"
           y="404.72812" />
        <rect
           style="fill:#66cc99;fill-opacity:1;stroke:none"
           id="rect4100"
           width="4.293148"
           height="4.0406103"
           x="352.79578"
           y="405.73828" />
        <g
           id="g4202"
           transform="matrix(1.1267606,0,0,1,-61.224492,-3.4092648)">
          <rect
             y="414.19833"
             x="367.44299"
             height="9.975256"
             width="8.9651041"
             id="rect4102"
             style="fill:#666666;fill-opacity:1;stroke:none" />
          <rect
             y="415.33466"
             x="368.26376"
             height="1.2626902"
             width="7.1973138"
             id="rect4104"
             style="fill:#669933;fill-opacity:1;stroke:none" />
          <g
             transform="translate(-0.05932617,0.32550561)"
             id="g4198">
            <rect
               style="fill:#669933;fill-opacity:1;stroke:none"
               id="rect4104-8"
               width="3.788049"
               height="1.2626902"
               x="368.32309"
               y="417.11365" />
            <rect
               style="fill:#669933;fill-opacity:1;stroke:none"
               id="rect4104-8-4"
               width="1.3889366"
               height="1.2626902"
               x="374.13147"
               y="417.11365" />
          </g>
          <rect
             y="419.54364"
             x="368.26376"
             height="1.2626902"
             width="7.1973138"
             id="rect4104-7"
             style="fill:#669933;fill-opacity:1;stroke:none" />
          <rect
             y="421.64813"
             x="368.26376"
             height="1.2626902"
             width="5.4295468"
             id="rect4104-7-3"
             style="fill:#669933;fill-opacity:1;stroke:none" />
        </g>
      </g>
    </g>
    <g
       id="g4092"
       transform="matrix(0.32392931,0,0,0.32392931,245.58167,418.74887)"
       inkscape:export-filename="/home/adq/dev/android/redbus/res/drawable/icon.png"
       inkscape:export-xdpi="87.862007"
       inkscape:export-ydpi="87.862007">
      <path
         id="path4078"
         d="m 21.481,0.65239 4.062,7.0627 c -7.394,3.6269 -12.406,10.728 -12.406,18.875 h 23.656 23.656 c 0,-8.1468 -5.012,-15.248 -12.406,-18.875 l 4.063,-7.0626 c 0,0 0.19231,-0.37509 -0.17225,-0.58569 -0.365,-0.21059 -0.61,0.14869 -0.61,0.14869 l -4.125,7.1248 c -3.141,-1.3979 -6.6721,-2.1875 -10.406,-2.1875 -3.7341,0 -7.2653,0.7896 -10.406,2.1875 l -4.125,-7.1248 c 0,0 -0.23006,-0.35939 -0.59737,-0.14971 -0.368,0.20967 -0.184,0.58671 -0.184,0.58671 z m 4.062,13.68 c 1.2395,0 2.25,1.0105 2.25,2.25 -10e-6,1.2395 -1.0105,2.2188 -2.25,2.2188 -1.2395,0 -2.25,-0.97928 -2.25,-2.2188 0,-1.23952 1.0105,-2.25 2.25,-2.25 z m 22.5,0 c 1.2395,0 2.25,1.0105 2.25,2.25 -10e-6,1.2395 -1.0105,2.2188 -2.25,2.2188 -1.2395,0 -2.25,-0.97928 -2.25,-2.2188 0,-1.23952 1.0105,-2.25 2.25,-2.25 z"
         inkscape:connector-curvature="0"
         style="fill:#a4c639" />
      <path
         id="path4080"
         d="m 12.947,29.344 0,35.893 c 0,1.7807 2.1523,4.1116 3.933,4.1116 h 5.6295 v 12.237 c 0,3.1162 2.2691,5.625 5.0938,5.625 2.8246,0 5.0938,-2.5088 5.0938,-5.625 v -12.237 h 8.1875 v 12.237 c 0,3.1162 2.2691,5.625 5.0938,5.625 2.8246,0 5.125,-2.5088 5.125,-5.625 v -12.237 h 5.5982 c 1.7807,0 3.933,-2.3309 3.933,-4.1116 V 29.344 h -47.688 z"
         inkscape:connector-curvature="0"
         style="fill:#a4c639" />
      <rect
         id="rect4082"
         x="0"
         y="28.593"
         width="10.197"
         height="32.544998"
         ry="5.625"
         rx="5.625"
         style="fill:#a4c639" />
      <rect
         id="rect4084"
         x="63.389999"
         y="28.593"
         width="10.197"
         height="32.544998"
         ry="5.625"
         rx="5.625"
         style="fill:#a4c639" />
    </g>
    <rect
       style="fill:#000000;fill-opacity:1;stroke:none"
       id="rect4274"
       width="5"
       height="5"
       x="201.25"
       y="442.36218"
       inkscape:export-filename="/home/adq/dev/android/redbus/res/drawable/icon.png"
       inkscape:export-xdpi="87.862007"
       inkscape:export-ydpi="87.862007" />
    <rect
       style="fill:#000000;fill-opacity:1;stroke:none"
       id="rect4274-0"
       width="5"
       height="5"
       x="232.5"
       y="442.36218"
       inkscape:export-filename="/home/adq/dev/android/redbus/res/drawable/icon.png"
       inkscape:export-xdpi="87.862007"
       inkscape:export-ydpi="87.862007" />
    <g
       id="g3012"
       transform="matrix(1,0,0,0.98000004,0,7.472228)"
       inkscape:export-filename="/home/adq/dev/android/redbus/res/drawable/icon.png"
       inkscape:export-xdpi="87.862007"
       inkscape:export-ydpi="87.862007">
      <path
         inkscape:export-ydpi="29.287312"
         inkscape:export-xdpi="29.287312"
         inkscape:export-filename="/home/adq/dev/android/redbus/icon24.png"
         sodipodi:nodetypes="cacccc"
         inkscape:connector-curvature="0"
         id="rect4266"
         d="m 198.75,379.86218 c 0,-5 13.01564,-6.19121 20,-6.25 7.38309,-0.0621 21.25,1.25 21.25,6.25 0,22.5 0,65 0,65 l -41.25,0 c 0,0 0,-43.74999 0,-65 z"
         style="fill:#ffffff;fill-opacity:1;stroke:none" />
      <path
         inkscape:export-ydpi="29.287312"
         inkscape:export-xdpi="29.287312"
         inkscape:export-filename="/home/adq/dev/android/redbus/icon24.png"
         sodipodi:nodetypes="cscccc"
         inkscape:connector-curvature="0"
         id="rect4348"
         d="m 198.75,429.86218 c 5.5,4.5 13.01564,6.19122 20,6.25 7.38309,0.0621 15.75,-1.75 21.25,-6.25 0,3.75 0,15 0,15 l -41.25,0 c 0,0 0,-11.25 0,-15 z"
         style="fill:#85161e;fill-opacity:1;stroke:none" />
      <rect
         inkscape:export-ydpi="29.287312"
         inkscape:export-xdpi="29.287312"
         inkscape:export-filename="/home/adq/dev/android/redbus/icon24.png"
         y="392.36218"
         x="200"
         height="15"
         width="38.75"
         id="rect4272"
         style="fill:#000000;fill-opacity:1;stroke:none" />
      <path
         inkscape:export-ydpi="29.287312"
         inkscape:export-xdpi="29.287312"
         inkscape:export-filename="/home/adq/dev/android/redbus/icon24.png"
         sodipodi:nodetypes="cccscc"
         inkscape:connector-curvature="0"
         id="rect4269-6"
         d="m 200,407.36218 38.75,0 0,22 c 0,0 -5.83333,5.5 -18.75,5.5 -14.09091,0 -20,-5.53571 -20,-5.53571 z"
         style="fill:#d5ffff;fill-opacity:1;stroke:none" />
      <path
         inkscape:export-ydpi="29.287312"
         inkscape:export-xdpi="29.287312"
         inkscape:export-filename="/home/adq/dev/android/redbus/icon24.png"
         sodipodi:nodetypes="cacccc"
         inkscape:connector-curvature="0"
         id="rect4266-4"
         d="m 200,379.36218 c 1.25,-3.25 12.32268,-4.45426 18.75,-4.5 6.83316,-0.0486 18.75,1.25 20,4.5 0,4.34211 0,11.75 0,11.75 l -38.75,0 c 0,0 0,-7.64912 0,-11.75 z"
         style="fill:#d4feff;fill-opacity:1;stroke:none" />
      <rect
         inkscape:export-ydpi="29.287312"
         inkscape:export-xdpi="29.287312"
         inkscape:export-filename="/home/adq/dev/android/redbus/icon24.png"
         y="401.4783"
         x="205.12627"
         height="3.75"
         width="18.75"
         id="rect4350"
         style="fill:#ffffff;fill-opacity:1;stroke:none" />
      <rect
         inkscape:export-ydpi="29.287312"
         inkscape:export-xdpi="29.287312"
         inkscape:export-filename="/home/adq/dev/android/redbus/icon24.png"
         y="394.86218"
         x="206.25"
         height="3.75"
         width="16.25"
         id="rect4352"
         style="fill:#ffffff;fill-opacity:1;stroke:none" />
      <text
         inkscape:export-ydpi="29.287312"
         inkscape:export-xdpi="29.287312"
         inkscape:export-filename="/home/adq/dev/android/redbus/icon24.png"
         sodipodi:linespacing="125%"
         id="text4354"
         y="402.53687"
         x="229.91878"
         style="font-size:2.46884108px;font-style:normal;font-weight:normal;line-height:125%;letter-spacing:0px;word-spacing:0px;fill:#ffffff;fill-opacity:1;stroke:none;font-family:Bitstream Vera Sans"
         xml:space="preserve"><tspan
           style="font-size:10.18559361px;font-style:normal;font-variant:normal;font-weight:bold;font-stretch:normal;text-align:start;line-height:125%;writing-mode:lr-tb;text-anchor:start;font-family:Courier New;-inkscape-font-specification:Courier New Bold"
           y="402.53687"
           x="229.91878"
           id="tspan4356"
           sodipodi:role="line">8</tspan></text>
    </g>
  </g>
</svg>
