<?xml version="1.0" encoding="UTF-8" standalone="no"?>
<!-- Created with Inkscape (http://www.inkscape.org/) -->

<svg
   xmlns:dc="http://purl.org/dc/elements/1.1/"
   xmlns:cc="http://creativecommons.org/ns#"
   xmlns:rdf="http://www.w3.org/1999/02/22-rdf-syntax-ns#"
   xmlns:svg="http://www.w3.org/2000/svg"
   xmlns="http://www.w3.org/2000/svg"
   xmlns:sodipodi="http://sodipodi.sourceforge.net/DTD/sodipodi-0.dtd"
   xmlns:inkscape="http://www.inkscape.org/namespaces/inkscape"
   width="744.09448819"
   height="1052.3622047"
   id="svg2"
   version="1.1"
   inkscape:version="0.48.2 r9819"
   inkscape:export-filename="test.png"
   inkscape:export-xdpi="4.6199999"
   inkscape:export-ydpi="4.6199999"
   sodipodi:docname="compass.svg">
  <defs
     id="defs4" />
  <sodipodi:namedview
     id="base"
     pagecolor="#ffffff"
     bordercolor="#666666"
     borderopacity="1.0"
     inkscape:pageopacity="0.0"
     inkscape:pageshadow="2"
     inkscape:zoom="0.49497475"
     inkscape:cx="-5.5169142"
     inkscape:cy="629.4372"
     inkscape:document-units="px"
     inkscape:current-layer="layer1"
     showgrid="true"
     inkscape:window-width="1436"
     inkscape:window-height="856"
     inkscape:window-x="4"
     inkscape:window-y="0"
     inkscape:window-maximized="1">
    <inkscape:grid
       type="xygrid"
       id="grid3757"
       empspacing="5"
       visible="true"
       enabled="true"
       snapvisiblegridlinesonly="true" />
  </sodipodi:namedview>
  <metadata
     id="metadata7">
    <rdf:RDF>
      <cc:Work
         rdf:about="">
        <dc:format>image/svg+xml</dc:format>
        <dc:type
           rdf:resource="http://purl.org/dc/dcmitype/StillImage" />
        <dc:title />
      </cc:Work>
    </rdf:RDF>
  </metadata>
  <g
     inkscape:label="Layer 1"
     inkscape:groupmode="layer"
     id="layer1">
    <g
       id="compass_n"
       transform="matrix(0,-1,1,0,-22.862189,402.86218)"
       inkscape:label="#g3926">
      <path
         inkscape:export-ydpi="4.6199999"
         inkscape:export-xdpi="4.6199999"
         inkscape:export-filename="/home/adq/Desktop/test.png"
         transform="matrix(1.0294117,0,0,1.0294117,-51.176468,-252.80474)"
         d="m 331.42858,452.36218 c 0,53.65052 -43.49234,97.14286 -97.14286,97.14286 -53.65052,0 -97.14286,-43.49234 -97.14286,-97.14286 0,-53.65052 43.49234,-97.14286 97.14286,-97.14286 53.65052,0 97.14286,43.49234 97.14286,97.14286 z"
         sodipodi:ry="97.14286"
         sodipodi:rx="97.14286"
         sodipodi:cy="452.36218"
         sodipodi:cx="234.28572"
         id="path3755"
         style="fill:#bb2742;fill-opacity:1;stroke:none"
         sodipodi:type="arc" />
      <path
         inkscape:export-ydpi="4.6199999"
         inkscape:export-xdpi="4.6199999"
         inkscape:export-filename="/home/adq/Desktop/test.png"
         sodipodi:nodetypes="ccc"
         inkscape:connector-curvature="0"
         id="path2992"
         d="m 160,152.07271 80,60.28947 -80,60"
         style="fill:none;stroke:#ffffff;stroke-width:30;stroke-linecap:round;stroke-linejoin:miter;stroke-miterlimit:4;stroke-opacity:1;stroke-dasharray:none" />
    </g>
    <g
       transform="matrix(0.70710678,0.70710678,-0.70710678,0.70710678,206.166,587.99561)"
       id="compass_se"
       inkscape:label="#g3926-9">
      <path
         inkscape:export-ydpi="4.6199999"
         inkscape:export-xdpi="4.6199999"
         inkscape:export-filename="/home/adq/Desktop/test.png"
         transform="matrix(1.0294117,0,0,1.0294117,-51.176468,-252.80474)"
         d="m 331.42858,452.36218 c 0,53.65052 -43.49234,97.14286 -97.14286,97.14286 -53.65052,0 -97.14286,-43.49234 -97.14286,-97.14286 0,-53.65052 43.49234,-97.14286 97.14286,-97.14286 53.65052,0 97.14286,43.49234 97.14286,97.14286 z"
         sodipodi:ry="97.14286"
         sodipodi:rx="97.14286"
         sodipodi:cy="452.36218"
         sodipodi:cx="234.28572"
         id="path3755-3"
         style="fill:#bb2742;fill-opacity:1;stroke:none"
         sodipodi:type="arc" />
      <path
         inkscape:export-ydpi="4.6199999"
         inkscape:export-xdpi="4.6199999"
         inkscape:export-filename="/home/adq/Desktop/test.png"
         sodipodi:nodetypes="ccc"
         inkscape:connector-curvature="0"
         id="path2992-34"
         d="m 160,152.07271 80,60.28947 -80,60"
         style="fill:none;stroke:#ffffff;stroke-width:30;stroke-linecap:round;stroke-linejoin:miter;stroke-miterlimit:4;stroke-opacity:1;stroke-dasharray:none" />
    </g>
    <g
       transform="translate(0,440)"
       id="compass_e"
       inkscape:label="#g3926-61">
      <path
         inkscape:export-ydpi="4.6199999"
         inkscape:export-xdpi="4.6199999"
         inkscape:export-filename="/home/adq/Desktop/test.png"
         transform="matrix(1.0294117,0,0,1.0294117,-51.176468,-252.80474)"
         d="m 331.42858,452.36218 c 0,53.65052 -43.49234,97.14286 -97.14286,97.14286 -53.65052,0 -97.14286,-43.49234 -97.14286,-97.14286 0,-53.65052 43.49234,-97.14286 97.14286,-97.14286 53.65052,0 97.14286,43.49234 97.14286,97.14286 z"
         sodipodi:ry="97.14286"
         sodipodi:rx="97.14286"
         sodipodi:cy="452.36218"
         sodipodi:cx="234.28572"
         id="path3755-7"
         style="fill:#bb2742;fill-opacity:1;stroke:none"
         sodipodi:type="arc" />
      <path
         inkscape:export-ydpi="4.6199999"
         inkscape:export-xdpi="4.6199999"
         inkscape:export-filename="/home/adq/Desktop/test.png"
         sodipodi:nodetypes="ccc"
         inkscape:connector-curvature="0"
         id="path2992-2"
         d="m 160,152.07271 80,60.28947 -80,60"
         style="fill:none;stroke:#ffffff;stroke-width:30;stroke-linecap:round;stroke-linejoin:miter;stroke-miterlimit:4;stroke-opacity:1;stroke-dasharray:none" />
    </g>
    <g
       transform="matrix(0.70710678,-0.70710678,0.70710678,0.70710678,-94.866583,416.69617)"
       id="compass_ne"
       inkscape:label="#g3926-12">
      <path
         inkscape:export-ydpi="4.6199999"
         inkscape:export-xdpi="4.6199999"
         inkscape:export-filename="/home/adq/Desktop/test.png"
         transform="matrix(1.0294117,0,0,1.0294117,-51.176468,-252.80474)"
         d="m 331.42858,452.36218 c 0,53.65052 -43.49234,97.14286 -97.14286,97.14286 -53.65052,0 -97.14286,-43.49234 -97.14286,-97.14286 0,-53.65052 43.49234,-97.14286 97.14286,-97.14286 53.65052,0 97.14286,43.49234 97.14286,97.14286 z"
         sodipodi:ry="97.14286"
         sodipodi:rx="97.14286"
         sodipodi:cy="452.36218"
         sodipodi:cx="234.28572"
         id="path3755-4"
         style="fill:#bb2742;fill-opacity:1;stroke:none"
         sodipodi:type="arc" />
      <path
         inkscape:export-ydpi="4.6199999"
         inkscape:export-xdpi="4.6199999"
         inkscape:export-filename="/home/adq/Desktop/test.png"
         sodipodi:nodetypes="ccc"
         inkscape:connector-curvature="0"
         id="path2992-7"
         d="m 160,152.07271 80,60.28947 -80,60"
         style="fill:none;stroke:#ffffff;stroke-width:30;stroke-linecap:round;stroke-linejoin:miter;stroke-miterlimit:4;stroke-opacity:1;stroke-dasharray:none" />
    </g>
    <g
       id="compass_s"
       transform="matrix(0,1,-1,0,722.86218,22.862192)"
       inkscape:label="#g3926-6">
      <path
         inkscape:export-ydpi="4.6199999"
         inkscape:export-xdpi="4.6199999"
         inkscape:export-filename="/home/adq/Desktop/test.png"
         transform="matrix(1.0294117,0,0,1.0294117,-51.176468,-252.80474)"
         d="m 331.42858,452.36218 c 0,53.65052 -43.49234,97.14286 -97.14286,97.14286 -53.65052,0 -97.14286,-43.49234 -97.14286,-97.14286 0,-53.65052 43.49234,-97.14286 97.14286,-97.14286 53.65052,0 97.14286,43.49234 97.14286,97.14286 z"
         sodipodi:ry="97.14286"
         sodipodi:rx="97.14286"
         sodipodi:cy="452.36218"
         sodipodi:cx="234.28572"
         id="path3755-40"
         style="fill:#bb2742;fill-opacity:1;stroke:none"
         sodipodi:type="arc" />
      <path
         inkscape:export-ydpi="4.6199999"
         inkscape:export-xdpi="4.6199999"
         inkscape:export-filename="/home/adq/Desktop/test.png"
         sodipodi:nodetypes="ccc"
         inkscape:connector-curvature="0"
         id="path2992-3"
         d="m 160,152.07271 80,60.28947 -80,60"
         style="fill:none;stroke:#ffffff;stroke-width:30;stroke-linecap:round;stroke-linejoin:miter;stroke-miterlimit:4;stroke-opacity:1;stroke-dasharray:none" />
    </g>
    <g
       transform="matrix(-0.81915204,-0.57357644,0.57357644,-0.81915204,543.54615,1156.2082)"
       id="compass_nw"
       inkscape:label="#g3926-9-5">
      <path
         inkscape:export-ydpi="4.6199999"
         inkscape:export-xdpi="4.6199999"
         inkscape:export-filename="/home/adq/Desktop/test.png"
         transform="matrix(1.0294117,0,0,1.0294117,-51.176468,-252.80474)"
         d="m 331.42858,452.36218 c 0,53.65052 -43.49234,97.14286 -97.14286,97.14286 -53.65052,0 -97.14286,-43.49234 -97.14286,-97.14286 0,-53.65052 43.49234,-97.14286 97.14286,-97.14286 53.65052,0 97.14286,43.49234 97.14286,97.14286 z"
         sodipodi:ry="97.14286"
         sodipodi:rx="97.14286"
         sodipodi:cy="452.36218"
         sodipodi:cx="234.28572"
         id="path3755-3-8"
         style="fill:#bb2742;fill-opacity:1;stroke:none"
         sodipodi:type="arc" />
      <path
         inkscape:export-ydpi="4.6199999"
         inkscape:export-xdpi="4.6199999"
         inkscape:export-filename="/home/adq/Desktop/test.png"
         sodipodi:nodetypes="ccc"
         inkscape:connector-curvature="0"
         id="path2992-34-5"
         d="m 160,152.07271 80,60.28947 -80,60"
         style="fill:none;stroke:#ffffff;stroke-width:30;stroke-linecap:round;stroke-linejoin:miter;stroke-miterlimit:4;stroke-opacity:1;stroke-dasharray:none" />
    </g>
    <g
       transform="matrix(-1,0,0,-1,699.99999,865.72437)"
       id="compass_w"
       inkscape:label="#g3926-61-0">
      <path
         inkscape:export-ydpi="4.6199999"
         inkscape:export-xdpi="4.6199999"
         inkscape:export-filename="/home/adq/Desktop/test.png"
         transform="matrix(1.0294117,0,0,1.0294117,-51.176468,-252.80474)"
         d="m 331.42858,452.36218 c 0,53.65052 -43.49234,97.14286 -97.14286,97.14286 -53.65052,0 -97.14286,-43.49234 -97.14286,-97.14286 0,-53.65052 43.49234,-97.14286 97.14286,-97.14286 53.65052,0 97.14286,43.49234 97.14286,97.14286 z"
         sodipodi:ry="97.14286"
         sodipodi:rx="97.14286"
         sodipodi:cy="452.36218"
         sodipodi:cx="234.28572"
         id="path3755-7-9"
         style="fill:#bb2742;fill-opacity:1;stroke:none"
         sodipodi:type="arc" />
      <path
         inkscape:export-ydpi="4.6199999"
         inkscape:export-xdpi="4.6199999"
         inkscape:export-filename="/home/adq/Desktop/test.png"
         sodipodi:nodetypes="ccc"
         inkscape:connector-curvature="0"
         id="path2992-2-9"
         d="m 160,152.07271 80,60.28947 -80,60"
         style="fill:none;stroke:#ffffff;stroke-width:30;stroke-linecap:round;stroke-linejoin:miter;stroke-miterlimit:4;stroke-opacity:1;stroke-dasharray:none" />
    </g>
    <g
       transform="matrix(-0.70710678,0.70710678,-0.70710678,-0.70710678,794.86657,449.02819)"
       id="compass_sw"
       inkscape:label="#g3926-12-8">
      <path
         inkscape:export-ydpi="4.6199999"
         inkscape:export-xdpi="4.6199999"
         inkscape:export-filename="/home/adq/Desktop/test.png"
         transform="matrix(1.0294117,0,0,1.0294117,-51.176468,-252.80474)"
         d="m 331.42858,452.36218 c 0,53.65052 -43.49234,97.14286 -97.14286,97.14286 -53.65052,0 -97.14286,-43.49234 -97.14286,-97.14286 0,-53.65052 43.49234,-97.14286 97.14286,-97.14286 53.65052,0 97.14286,43.49234 97.14286,97.14286 z"
         sodipodi:ry="97.14286"
         sodipodi:rx="97.14286"
         sodipodi:cy="452.36218"
         sodipodi:cx="234.28572"
         id="path3755-4-0"
         style="fill:#bb2742;fill-opacity:1;stroke:none"
         sodipodi:type="arc" />
      <path
         inkscape:export-ydpi="4.6199999"
         inkscape:export-xdpi="4.6199999"
         inkscape:export-filename="/home/adq/Desktop/test.png"
         sodipodi:nodetypes="ccc"
         inkscape:connector-curvature="0"
         id="path2992-7-2"
         d="m 160,152.07271 80,60.28947 -80,60"
         style="fill:none;stroke:#ffffff;stroke-width:30;stroke-linecap:round;stroke-linejoin:miter;stroke-miterlimit:4;stroke-opacity:1;stroke-dasharray:none" />
    </g>
    <path
       sodipodi:type="arc"
       style="fill:#bb2742;fill-opacity:1;stroke:none"
       id="stop_unknown"
       sodipodi:cx="234.28572"
       sodipodi:cy="452.36218"
       sodipodi:rx="97.14286"
       sodipodi:ry="97.14286"
       d="m 331.42858,452.36218 a 97.14286,97.14286 0 1 1 -194.28572,0 97.14286,97.14286 0 1 1 194.28572,0 z"
       transform="matrix(0,1.0294117,-1.0294117,0,825.66692,-228.81428)"
       inkscape:export-filename="/home/adq/Desktop/test.png"
       inkscape:export-xdpi="4.6199999"
       inkscape:export-ydpi="4.6199999"
       inkscape:label="#path3755-40-3" />
    <g
       id="stop_outoforder"
       transform="translate(-161.62441,-159.6041)"
       inkscape:export-filename="/home/adq/dev/android/redbus/res/drawable/stop_outoforder.png"
       inkscape:export-xdpi="4.5"
       inkscape:export-ydpi="4.5"
       inkscape:label="#g3853">
      <path
         inkscape:export-ydpi="4.6199999"
         inkscape:export-xdpi="4.6199999"
         inkscape:export-filename="/home/adq/Desktop/test.png"
         transform="matrix(0,1.0294117,-1.0294117,0,1345.6669,231.18572)"
         d="m 331.42858,452.36218 c 0,53.65052 -43.49234,97.14286 -97.14286,97.14286 -53.65052,0 -97.14286,-43.49234 -97.14286,-97.14286 0,-53.65052 43.49234,-97.14286 97.14286,-97.14286 53.65052,0 97.14286,43.49234 97.14286,97.14286 z"
         sodipodi:ry="97.14286"
         sodipodi:rx="97.14286"
         sodipodi:cy="452.36218"
         sodipodi:cx="234.28572"
         id="path3755-40-3-5"
         style="fill:#bb2742;fill-opacity:1;stroke:none"
         sodipodi:type="arc" />
      <g
         transform="matrix(0.8922504,0,0,0.8922504,-12.250423,300.72695)"
         style="stroke:#ffffff;stroke-width:33.62284851;stroke-linecap:round;stroke-miterlimit:4;stroke-dasharray:none"
         id="g3849">
        <path
           style="fill:none;stroke:#ffffff;stroke-width:33.62284851;stroke-linecap:round;stroke-linejoin:miter;stroke-miterlimit:4;stroke-opacity:1;stroke-dasharray:none"
           d="m 940,132.36218 120,120 0,0 0,0 0,0"
           id="path3845"
           inkscape:connector-curvature="0" />
        <path
           style="fill:none;stroke:#ffffff;stroke-width:33.62284851;stroke-linecap:round;stroke-linejoin:miter;stroke-miterlimit:4;stroke-opacity:1;stroke-dasharray:none"
           d="m 1060,132.36218 -120,120"
           id="path3847"
           inkscape:connector-curvature="0" />
      </g>
    </g>
    <g
       id="stop_diverted"
       inkscape:export-filename="/home/adq/dev/android/redbus/res/drawable/stop_diverted.png"
       inkscape:export-xdpi="4.5"
       inkscape:export-ydpi="4.5"
       inkscape:label="#g3875">
      <path
         inkscape:export-ydpi="4.6199999"
         inkscape:export-xdpi="4.6199999"
         inkscape:export-filename="/home/adq/Desktop/test.png"
         transform="matrix(0,1.0294117,-1.0294117,0,1202.6314,320.6985)"
         d="m 331.42858,452.36218 a 97.14286,97.14286 0 1 1 -194.28572,0 97.14286,97.14286 0 1 1 194.28572,0 z"
         sodipodi:ry="97.14286"
         sodipodi:rx="97.14286"
         sodipodi:cy="452.36218"
         sodipodi:cx="234.28572"
         id="path3755-40-3-1"
         style="fill:#bb2742;fill-opacity:1;stroke:none"
         sodipodi:type="arc" />
      <path
         transform="matrix(0.89304267,0,0,0.89304267,-254.31289,166.82666)"
         d="m 1180,442.36218 a 70,70 0 1 1 -140,0 70,70 0 1 1 140,0 z"
         sodipodi:ry="70"
         sodipodi:rx="70"
         sodipodi:cy="442.36218"
         sodipodi:cx="1110"
         id="path3873"
         style="fill:none;stroke:#ffffff;stroke-width:30;stroke-linecap:round;stroke-linejoin:round;stroke-miterlimit:4;stroke-opacity:1;stroke-dasharray:none"
         sodipodi:type="arc" />
    </g>
  </g>
</svg>
